<?xml version="1.0" encoding="utf-8"?>
<!-- Generator: Adobe Illustrator 27.9.0, SVG Export Plug-In . SVG Version: 6.00 Build 0)  -->
<svg version="1.1" id="Layer_1" xmlns="http://www.w3.org/2000/svg" xmlns:xlink="http://www.w3.org/1999/xlink" x="0px" y="0px"
	 viewBox="0 0 595.3 841.9" style="enable-background:new 0 0 595.3 841.9;" xml:space="preserve">
<style type="text/css">
	.st0{fill:#FEFEFE;}
	.st1{fill:#933801;}
	.st2{fill:#0A85E2;}
	.st3{fill:#00A651;}
	.st4{fill:#B6E6CD;}
	.st5{fill:#65C996;}
	.st6{fill:#FFFFFF;}
	.st7{fill:#FFFFFE;}
	.st8{fill:#FFFEFE;}
	.st9{fill:#FBF8F6;}
	.st10{fill:#FBF7F5;}
	.st11{fill:#FAF7F4;}
	.st12{fill:#FAF6F4;}
	.st13{fill:#FAF6F3;}
	.st14{fill:#E2C9BB;}
	.st15{fill:#E5CFC2;}
	.st16{fill:#E4CEC1;}
	.st17{fill:#E1C9BA;}
	.st18{fill:#66CA97;}
	.st19{fill:#933902;}
	.st20{fill:none;}
</style>
<g>
	<g>
		<path class="st0" d="M1,24c198.5,0,397,0,595.4,0c0,234.6,0,469.1,0,703.7c-198.5,0-397,0-595.4,0C1,493.1,1,258.6,1,24z"/>
		<path class="st1" d="M491.7,429.3c0,1.5,0,3,0,4.6c0,53.4,0,106.7,0,160.1c0,5.7-1.4,10.9-4.8,15.5c-4.7,6.2-11,9.3-18.7,9.7
			c-0.7,0-1.4,0-2.2,0c-112.5,0-225,0-337.5,0c-3.5,0-6.9-0.3-10.1-1.6c-9.2-3.5-15.4-12.2-15.6-22.1c0-0.6,0-1.3,0-1.9
			c0-57,0-114.1,0-171.1c0-0.8,0-1.5,0-2.3c22.7,52.4,59.4,91.3,111.8,114.1c52.5,22.9,106.2,24,159.8,3.8
			C428.1,517.8,466.4,480.6,491.7,429.3z"/>
		<path class="st1" d="M107.1,401.9c0.4,0,0.6,0.2,0.8,0.4c10.4,12.1,22.5,22.2,35.8,30.9c11.9,7.8,24.5,13.9,37.9,18.6
			c8.7,3,17.5,5.3,26.6,7c13,2.4,26.2,3,39.4,2.6c10.8-0.4,21.4-1.9,32-4.2c5.5-1.2,11-2.5,16.4-4.2c6.9-2.2,13.7-4.7,20.3-7.7
			c4.9-2.2,9.8-4.2,14.9-5.8c6-1.8,12.1-3,18.4-2.9c4.1,0.1,8,0.7,11.8,2.5c5.1,2.4,6.9,8.1,5.8,12.1c-1.3,4.8-4,8.7-7.3,12.2
			c-4,4.2-8.5,7.7-13.3,10.9c-9.8,6.5-20.4,11.3-30.9,16.3c-2.1,1-4.1,2.2-6.3,3c-0.2,0.1-0.5,0.2-0.6,0.3c-0.4,0.3-0.8,0.6-0.7,1.2
			c0.1,0.6,0.7,0.6,1.2,0.6c3.7-0.2,7.4,0.2,11-0.4c3.6-0.5,7.3-0.6,11-1.2c3.6-0.7,7.2-1.2,10.8-2.2c4.8-1.3,9.5-2.6,14.2-4.3
			c11.4-4.2,22.3-9.6,32.6-16c17.1-10.5,32.4-23.2,46.8-37.2c6.8-6.6,13.1-13.5,19.7-20.3c4.5-4.6,9.4-8.7,15.1-11.6
			c4.2-2.1,8.8-3.1,13.5-2.2c2.1,0.4,4.1,1.1,6,2.3c1,0.6,1.2,1.2,0.8,2.3c-2.1,6.1-4.4,12.1-7.1,18c-3.8,8.6-8.3,16.9-13.3,24.9
			c-5.1,8.1-10.8,15.8-16.9,23.2c-6.8,8-14.1,15.5-22,22.3c-11.7,10.1-24.4,18.8-38.1,26c-11.6,6.1-23.7,11-36.3,14.8
			c-7.2,2.2-14.5,3.8-21.9,5.1c-12.5,2.3-25.2,3.3-37.9,3.2c-6.9-0.1-13.9-0.5-20.8-1.3c-6.8-0.8-13.5-1.8-20.1-3.2
			c-8.7-1.9-17.3-4.4-25.7-7.5c-12.9-4.7-25.2-10.7-37-17.9c-12.3-7.5-23.6-16.3-34.1-26.3c-6.3-6-12.1-12.3-17.5-19
			c-7.6-9.5-14.3-19.6-20.2-30.2c-4.3-7.8-8.1-15.9-11.1-24.3c-1.2-3.2-2.2-6.5-3.5-9.6C107.1,402.7,106.9,402.3,107.1,401.9z"/>
		<path class="st2" d="M490.7,283.4c-1.8-1.9-3.4-3.8-5.1-5.5c-8.4-8.8-17.7-16.7-27.7-23.5c-12.9-8.8-26.8-15.8-41.5-21
			c-5-1.8-10.1-3.4-15.3-4.6c-8-1.9-16.1-3.2-24.3-4.2c-9.3-1.1-18.7-0.9-28-0.7c-5,0.1-10,0.9-15,1.5c-6,0.7-11.8,2-17.6,3.2
			c-3.7,0.8-7.4,1.8-11.1,3c-6,1.8-11.8,3.8-17.6,6.1c-4.7,1.9-9.4,3.9-14.1,5.9c-6.7,2.7-13.6,4.4-20.8,5
			c-5.4,0.5-10.7,0.1-15.7-2.3c-3.8-1.8-5.9-4.9-6.2-9c-0.2-3,0.9-5.8,2.4-8.4c2.2-3.9,5.2-7.2,8.6-10.2c7.6-6.8,16.3-12,25.5-16.5
			c7.2-3.5,14.4-7,21.5-10.4c0.3-0.1,0.6-0.2,0.8-0.4c0.3-0.3,0.8-0.6,0.6-1.2c-0.2-0.4-0.6-0.5-1-0.5c-2.9,0-5.8-0.2-8.6,0.1
			c-4.5,0.5-9.1,0.7-13.6,1.5c-6.4,1.1-12.6,2.6-18.8,4.5c-6.4,1.9-12.6,4.4-18.7,7.2c-8.1,3.7-15.8,8-23.3,12.8
			c-8.7,5.5-16.9,11.7-24.9,18.3c-9.9,8.2-19.2,17.1-28.1,26.5c-4,4.2-7.9,8.4-12,12.5c-4.4,4.4-9.4,8.2-15.2,10.6
			c-3.7,1.5-7.6,1.9-11.5,1.4c-2.3-0.3-4.4-1.2-6.4-2.6c-0.7-0.5-0.8-1-0.6-1.8c3.5-10,7.5-19.8,12.5-29.2
			c4.3-8.2,9.1-16.1,14.5-23.7c8-11.3,17.1-21.7,27.3-31.1c13-12,27.2-22.2,42.9-30.4c10.6-5.5,21.5-10.1,32.8-13.8
			c8.2-2.6,16.6-4.7,25-6.3c5.7-1.1,11.5-1.7,17.3-2.5c3.5-0.4,7-0.4,10.5-0.7c9.1-0.7,18.2-0.1,27.3,0.6c6.8,0.5,13.5,1.6,20.2,2.9
			c7.2,1.4,14.3,3.2,21.3,5.4c5.2,1.6,10.3,3.4,15.3,5.5c10.4,4.3,20.5,9.3,30.1,15.2c12.6,7.7,24.1,16.7,34.8,26.9
			c12,11.4,22.2,24.2,31,38.2c6.6,10.5,12.2,21.5,16.7,33.1c1.5,3.8,2.7,7.6,4.1,11.5C491,282.6,491.2,282.9,490.7,283.4z"/>
		<path class="st3" d="M363.7,473.2c3.7-3.5,6.9-7.3,9.6-11.6c2.4-3.9,3.8-8.3,3.8-12.7c0-6.2-2.1-11.9-7.4-15.9
			c-3.9-3-8.4-4.4-13.2-5.4c-8.7-1.7-17,0-25.3,2.1c-6.5,1.6-12.6,4-18.7,6.7c-7.2,3.1-14.7,5.9-22.2,8.2c-7,2.2-14.2,3.8-21.4,5.1
			c-4.1,0.7-8.2,1-12.4,1.5c-9.9,1.1-19.8,1.1-29.7,0.4c-12.3-0.9-24.4-2.8-36.1-6.8c-4.6-1.6-9.2-3-13.7-4.9
			c-0.7-0.3-1.5-0.5-2.2-1.3c25.3-18.7,53.2-31.2,83.9-37.8c30.6-6.5,61.2-6.4,92-0.3c0.1-2.5-0.4-4.7-0.8-6.8
			c-1.5-8.1-4-16-7.8-23.3c-4.7-9-11.7-15.9-20.2-21.4c-8.2-5.3-17.3-8.6-26.6-11.4c-1.3-0.4-2.6-0.8-3.9-1.2
			c-0.7-0.2-1.3-0.3-1.6,0.5c-0.3,0.8,0.4,1.1,1,1.4c0.5,0.3,1,0.5,1.5,0.7c5.7,2.7,11.5,5.2,17,8.4c11.8,7,20.6,16.8,26.4,29.3
			c1.2,2.6,2.1,5.4,2.5,8.2c0.2,1.5,0.3,3-0.3,4.5c-0.7,1.7-1.7,2.4-3.5,2.2c-0.8-0.1-1.6-0.3-2.3-0.6c-9.5-3.8-19.5-5.3-29.6-6.6
			c-8.8-1.1-17.6-2.1-26.3-4.1c-17-4.1-30.9-13.2-42-26.6c-9.3-11.1-15.6-23.9-19.6-37.8c-2.9-9.7-5-19.7-7.6-29.5
			c-0.5-2-1.1-4-1.7-6c-0.2-0.8-0.4-1.5-0.4-2.4c0.1-1.9,1.6-3,3.4-2.6c0.5,0.1,0.9,0.3,1.3,0.6c10.4,5.4,21.6,8.2,33.1,10.1
			c9.2,1.5,18.6,2.3,27.8,3.4c9,1.1,18.1,2.4,26.9,4.9c9.9,2.8,19.1,6.9,27.2,13.3c6.8,5.4,12.1,12.1,16.2,19.7
			c7.4,13.7,11.8,28.4,14.4,43.8c1.6,9.3,2.1,18.7,1.9,28.2c0,2.6,0,2.6,2.6,3.2c22.4,5.6,43.4,14.6,63,27c0.6,0.4,1.2,0.8,1.8,1.2
			c0.1,0.1,0.2,0.2,0.4,0.4c0,0.7-0.7,1-1.1,1.4c-10,9.5-20.7,18.3-32.2,26c-8.6,5.8-17.6,11-27.1,15.2
			C363.7,473.9,363.6,473.7,363.7,473.2z"/>
		<path class="st3" d="M331,281.7c-0.3,0-0.6,0.1-0.9,0.1c-0.5,0.3-1.1,0.1-1.5,0.3c-8.3,1.3-16.3,3.4-23.3,8.3
			c-0.9,0.6-1.7,0.7-2.7,0.4c-9.4-3-19.1-4.8-28.8-5.9c-0.5-0.1-1.1-0.1-1.6-0.6c2.3-4,5.4-7.5,8.7-10.7
			c14.9-14,32.5-22.8,52.8-25.6c8.6-1.2,17.3-2,26-2.8c10.1-0.9,19.6-3.8,28.6-8.3c1.5-0.7,2.8-0.9,4.4-0.5c1,0.3,1.3,0.9,1.1,1.8
			c-0.1,0.4-0.2,0.8-0.3,1.2c-2.3,8.7-4.5,17.5-6.9,26.2c-3.4,12.9-9.4,24.4-17.9,34.7c-5.7,6.9-12.4,12.5-20.6,16.1
			c-1.8,0.8-3.6,1.3-5.4,1.9c-1.2,0.4-1.9,0.1-2.6-1c-2.3-3.4-5-6.5-7.9-9.3c-5.7-5.6-12.3-9.9-19.5-13.3c-0.8-0.4-1.7-0.5-2.4-1.3
			c1.9-1.4,3.8-2.6,5.9-3.6c5.2-2.5,10.5-5.1,15.7-7.6c0.6-0.6,1.3-0.9,2.1-1.1c0.2,0,0.2,0,0.2-0.2c-0.1,0.1-0.2,0.2-0.4,0.2
			C333.1,281.7,332,281.5,331,281.7z"/>
		<path class="st4" d="M334.4,281.2c-0.8,0.4-1.4,1.2-2.4,1c-0.2-0.4-0.7-0.4-1-0.5c1.1-0.6,2.2-0.8,3.4-0.9
			c0.1,0.1,0.1,0.2,0.1,0.3C334.5,281.2,334.5,281.2,334.4,281.2z"/>
		<path class="st5" d="M363.7,473.2c0.1,0.3,0.3,0.5,0.6,0.6c-0.6,0.7-1.4,0.8-2.5,1.2C362.3,474,362.9,473.5,363.7,473.2z"/>
		<path class="st4" d="M328.6,282.2c0.5-0.4,1-0.5,1.5-0.3C329.7,282.4,329.2,282.3,328.6,282.2z"/>
		<path class="st6" d="M461,586.8c2.1-1.8,3.6-3.5,5.5-4.7c1.1-0.7,2.3-1.2,3.6-1.2c2.3,0,4.6-0.1,7,0c3.2,0.1,4.5,1.4,5,4.7
			c0.1,0.5,0.1,1.1,0.1,1.7c0,4.4,0,8.8,0,13.2c0,1.8,0,1.9-1.8,1.9c-4,0-8,0-12,0c-4.7,0-9.4,0-14.2,0c-0.2,0-0.3,0-0.5,0
			c-1.6-0.1-3.2,0.4-4.6-0.9c-1.2,1.3-2.7,0.9-4.2,0.9c-1.5,0-3,0-4.6,0c-1.6,0-3.2,0-4.8,0s-3.2,0-4.8,0c-1.9,0-2,0-2-2
			c0-9.4,0-18.7,0-28.1c0-1.9,0-1.9,2-1.9c1.3,0,2.6,0,3.8,0c0.8,0,1.2,0.3,1.2,1.1c0,0.6,0,1.1,0,1.7c0,7.8,0,15.7,0,23.5
			c0,1.9,0,1.9,2,2c3.5,0.1,3.5,0.1,3.5-3.5c0-4.2,0-8.3,0-12.5c0-1.7,0-1.7,1.7-1.8c1.4,0,2.7,0,4.1,0c1.1,0,1.4,0.4,1.4,1.4
			c0,3.8,0,7.7,0,11.5c0,0.7,0,1.5,0.1,2.2c0.3,2.1,2.8,3.5,4.8,2.6c0.7-0.3,0.4-1,0.4-1.5c0-4.2,0-8.5,0-12.7c0-3.5,0-3.5,3.4-3.5
			c3.8,0,3.8,0,3.8,3.8C461,585.2,461,585.8,461,586.8z"/>
		<path class="st6" d="M297.3,598.6c-1.3-4-1.2-8.1-0.2-12.2c0.7-2.9,2.9-4.5,5.8-5c0.9-0.2,1.8-0.2,2.6-0.3
			c2.9-0.2,5.7-0.4,8.4-1.6c0.5,0.8,0.3,1.5,0.3,2.2c0,4.4,0,8.8,0,13.2c0,2.9,1.1,3.9,3.9,3.9c3.7,0,3.1,0.2,3.2-3
			c0-4.3,0-8.6,0-13c0-1.9,0-1.9,2-2c1.2,0,2.4,0,3.6,0c1,0,1.4,0.3,1.4,1.4c0,6.2,0,12.5,0,18.7c0,1.1-0.5,1.3-1.5,1.3
			c-4.6,0-9.3,0.1-13.9-0.1c-4-0.1-5.9-2.2-5.9-6.3c0-3,0-5.9,0-8.9c0-0.8,0.1-1.6-0.2-2.4c-2.3,0.1-3.1,0.7-3.2,2.7
			c-0.1,2.9-0.1,5.8,0,8.6c0,1.1,0.5,2,1.5,2.5c0.9,0.4,1.3,2.4,0.9,3.3c-0.2,0.5-0.6,0.4-1,0.4c-4.7,0-9.4,0.1-14.1-0.1
			c-3.8-0.2-5-1.7-5.1-5.5c-0.1-4.6,0-9.3,0-13.9c0-1.7,0-1.7,1.7-1.7c1.3,0,2.6,0.1,3.8,0c1.2-0.1,1.5,0.5,1.5,1.6
			c0,3.6,0,7.2,0,10.8c0,0.6,0,1.1,0,1.7C293.1,598.2,294.1,598.9,297.3,598.6z"/>
		<path class="st6" d="M367.3,598.6c-0.5-1.2-0.8-2-0.8-3c0-3.1,0-6.2,0-9.4c0.1-3.3,1.7-5.1,5-5.3c2.4-0.1,4.8-0.1,7.2,0
			c3.8,0.2,5.5,2,5.6,5.8c0.1,2.4,0,4.8,0,7.2c0,0.9-0.3,1.3-1.3,1.3c-1.5,0-3-0.1-4.6,0c-1.1,0-1.4-0.4-1.4-1.4c0-2.4,0-4.8,0-7.2
			c0-1.1-0.3-1.9-1.5-2c-1-0.1-1.8,0.3-1.9,1.3c-0.1,3.3-0.3,6.7,0.1,10.1c0.2,1.6,1.4,2.5,3.3,2.5c1.9,0.1,3.8,0.1,5.8,0
			c1.5-0.1,1.5,0.8,1.4,1.8c0,0.9,0.2,1.9-1.3,1.9c-6.4,0-12.8,0-19.2,0c-0.6,0-1.1-0.2-1.6-0.3c-0.7-0.2-1.6-1.8-2.1,0.2
			c0,0.1-0.8,0.1-1.1,0.1c-5,0-9.9,0-14.9,0c-1.5,0-1.5-0.1-1.5-2c0-1.1,0-1.8,1.5-1.8c2.5,0.1,5.1,0,7.7,0c1.1,0,1.6-0.2,1.6-1.4
			c-0.1-3.5,0-7-0.1-10.6c0-1.5-0.5-2-1.7-2c-1.2,0-1.7,0.5-1.7,2c0,2.2,0,4.5,0,6.7c0,1.8,0,1.8-1.7,1.8c-1.4,0-2.9,0-4.3,0
			c-0.8,0-1.2-0.3-1.1-1.1c0-2.9-0.1-5.8,0.1-8.6c0.2-3.1,1.6-4.4,4.8-4.5c2.6-0.1,5.3-0.1,7.9,0c3.2,0.1,4.7,1.6,4.8,4.8
			c0.1,2.5,0,5,0.1,7.4c0,0.7,0,1.4,0,2.2c0.2,2.1,1.3,3.2,3.4,3.3C364.8,598.7,365.9,598.6,367.3,598.6z"/>
		<path class="st6" d="M412.7,602.4c-3.4,0-6.9,0-10.3,0c-0.5,0-1,0-1.4,0c-0.4,0-0.8,0.2-0.8,0.7c0,0.6,0.3,0.9,0.8,1
			c0.6,0.1,1.3,0.1,1.9,0.1c2.3,0,4.6,0.1,7,0c1.6-0.1,1.4,0.9,1.4,1.9c0,1,0,1.7-1.3,1.7c-3.9-0.1-7.8,0-11.8-0.1
			c-4-0.1-5.8-3.2-3.9-6.8c0.8-1.4,0.4-2.2,0-3.6c-1.1-4.4-1.2-9,0-13.5c0.4-1.6,1.7-2.5,3.4-2.6c3-0.2,6.1-0.3,9.1,0
			c2.6,0.2,4.2,1.8,4.4,4.3c0.2,2.9,0.1,5.8,0.1,8.6c0,0.9-0.5,1-1.2,1c-1.4,0-2.9,0-4.3,0c-1.1,0-1.4-0.4-1.4-1.4
			c0-2.1,0-4.2,0-6.2c0-2.1-0.6-3-2-3c-1.2,0.1-1.7,0.9-1.7,2.9c0,2.4,0,4.8,0,7.2c0.1,2.5,1.1,3.8,3.6,3.8
			c4.1,0.2,8.3,0.2,12.5,0.3c1.3,0,1.6-0.5,1.6-1.7c0-4.6,0-9.3,0-13.9c0-2.3,0-2.3,2.2-2.3c1.6,0.1,3.5-0.7,4.6,0.4
			c0.9,1,0.3,2.9,0.3,4.4c0,4.8,0,9.6,0,14.4c0,2.1,0,2.1-2.1,2.1C419.7,602.3,416.2,602.3,412.7,602.4
			C412.7,602.3,412.7,602.3,412.7,602.4z"/>
		<path class="st7" d="M136.2,583.8c-2.8,0.1-3.4,0.7-3.5,3c-0.1,3,0,5.9,0,8.9c0,1.6-0.1,1.6-1.7,1.5c-3.3-0.1-5.7-2.6-5.5-5.7
			c0.1-1.4,0.1-2.9,0-4.3c-0.1-2.4,1.1-3.9,3.2-4.9c1.2-0.6,2.6-0.9,3.9-1c3.5-0.1,7-0.3,10.2-1.9c0.6,0.7,0.4,1.4,0.4,2
			c0,6.4,0,12.8,0,19.2c0,1.7,0,1.8-1.7,1.8c-7.8,0-15.7,0-23.5,0c-3.6,0-5.4-1.7-5.6-5.2c-0.2-5-0.1-9.9-0.1-14.9
			c0-1,0.4-1.4,1.4-1.4c1.4,0.1,2.9,0.1,4.3,0c1.1,0,1.4,0.4,1.4,1.4c0,3.7,0,7.4,0,11c0,0.6,0,1.1,0,1.7c0.1,2.7,0.9,3.6,3.6,3.7
			c3.8,0.1,7.7,0,11.5,0c0.7,0,1.5,0.2,1.5-1C136.2,593,136.2,588.4,136.2,583.8z"/>
		<path class="st6" d="M248.7,579.2c0,3.9,0,7.2,0,10.6c0,3.7,0,7.3,0,11c0,1.1-0.3,1.5-1.5,1.5c-7.9-0.1-15.8,0-23.7-0.1
			c-3.5,0-5.5-1.8-5.6-5.3c-0.1-5,0-9.9-0.1-14.9c0-1.1,0.5-1.4,1.4-1.3c1.4,0,2.7,0.1,4.1,0c1.2-0.1,1.7,0.3,1.7,1.6
			c-0.1,3.5,0,7,0,10.5c0,0.6,0,1.1,0,1.7c0,3.1,0.8,3.9,4,4c3.7,0,7.4,0,11,0c1.3,0,1.6-0.4,1.6-1.7c-0.1-4,0-8,0-12
			c0-1.3-0.5-1.6-1.8-1.1c-1.4,0.5-1.8,1.7-1.8,3.1c0,2.9,0,5.8,0,8.6c0,0.5,0.1,1-0.1,1.4c-4.3,0.6-6.8-1.4-6.9-5.6
			c0-1.4,0-2.9,0-4.3c0.1-2.3,1.3-3.9,3.4-4.8c1.3-0.5,2.6-0.9,3.9-0.9C241.8,581.2,245.2,581,248.7,579.2z"/>
		<path class="st6" d="M201.4,601.3c-1.9,1-3.7,1.1-5.5,1c-3.1-0.2-4.4-1.5-4.9-4.5c-0.1-0.3-0.1-0.6-0.1-1c0-3-0.1-6.1,0-9.1
			c0.1-4.2,2.3-6.4,6.5-6.7c0.8-0.1,1.6,0,2.4,0c1.4-0.1,2.9-0.1,4.3-0.2c1.4-0.1,2.8-0.7,4.4-1.3c0,0.8,0.1,1.3,0.1,1.9
			c0,6.9,0,13.7,0,20.6c0,0.3,0,0.6,0,1c-0.1,2.8-1.2,4.1-3.9,4.6c-1.9,0.4-3.8,0.1-5.7,0.2c-0.6,0-0.9-0.2-0.9-0.8
			c0-0.4,0-0.8,0-1.2c-0.1-1.2,0.2-1.7,1.6-1.7C201.5,603.9,201.5,603.8,201.4,601.3z"/>
		<path class="st0" d="M167.9,586.3c0,4.8,0,9.6,0,14.4c0,1.2-0.3,1.8-1.6,1.7c-1.5-0.1-3,0-4.5,0c-0.7,0-1-0.3-1-1c0-0.5,0-1,0-1.4
			c0-9,0-18,0-27c0-0.3,0-0.6,0-1c-0.1-1.1,0.2-1.6,1.4-1.6c1.4,0.1,2.7,0.1,4.1,0c1.2-0.1,1.7,0.4,1.6,1.6c-0.1,4.2,0,8.5,0,12.7
			C167.9,585.2,167.9,585.8,167.9,586.3z"/>
		<path class="st6" d="M331.9,586.1c0-4.6,0-9.2,0-13.9c0-1.8,0-1.8,1.9-1.8c1.1,0,2.2,0,3.3,0c1.8,0,1.8,0,1.8,1.9
			c0,9.4,0,18.8,0,28.2c0,1.8,0,1.8-1.9,1.8c-1.1,0-2.2,0-3.3,0c-1.8,0-1.8,0-1.8-1.9C331.9,595.6,331.9,590.9,331.9,586.1z"/>
		<path class="st8" d="M262.4,592.5c0,3,0,5.9,0,8.9c0,0.7,0,1.5-0.1,2.2c-0.5,2.5-1.9,3.8-4.4,4c-1.4,0.1-2.9,0-4.3,0.1
			c-0.8,0-1.2-0.2-1.2-1.1c0-0.7-0.1-1.5,0.1-2.1c0.2-0.8,1.1-0.4,1.6-0.7c0.6-0.3,1-0.8,1.1-1.5c0.1-0.6,0.1-1.3,0.1-1.9
			c0-5.8,0-11.7,0-17.5c0-1.8,0-1.9,1.8-1.9c1.3,0,2.6,0.1,3.8,0c1.2-0.1,1.5,0.4,1.5,1.5C262.4,585.8,262.4,589.2,262.4,592.5z"/>
		<path class="st0" d="M157,592.5c0,3.2,0,6.4,0,9.6c-0.1,3.9-1.7,5.5-5.6,5.6c-0.9,0-1.8,0-2.6,0c-0.6,0-1.4,0.3-1.6-0.5
			c-0.2-0.9-0.3-1.9,0.1-2.8c0.1-0.2,0.4-0.3,0.6-0.3c2.1-0.1,2.1-1.6,2.1-3.1c0-5.6,0-11.2,0-16.8c0-3.6-0.4-3.2,3.2-3.2
			c1.2,0,2.8-0.6,3.7,0.4c0.7,0.8,0.2,2.3,0.2,3.5C157,587.4,157,589.9,157,592.5L157,592.5z"/>
		<path class="st8" d="M181.3,592.3c0,3,0,6.1,0,9.1c0,1-0.1,1.9-0.4,2.8c-0.6,2.1-2.1,3.1-4.2,3.3c-1.3,0.1-2.6,0-3.8,0.1
			c-1.2,0.1-1.7-0.3-1.6-1.6c0.1-1.1-0.1-2.2,1.6-2.3c0.8,0,1.2-0.8,1.3-1.5c0.1-0.7,0.1-1.4,0.1-2.2c0-5.8,0-11.5,0-17.3
			c0-1.8,0-1.8,1.8-1.9c1.3,0,2.6,0,3.8,0c1.2-0.1,1.5,0.5,1.5,1.6C181.3,585.8,181.3,589,181.3,592.3z"/>
		<path class="st0" d="M276.1,592.5c0,2.7,0,5.4,0,8.2c0,0.9,0,1.8-0.1,2.6c-0.3,2.6-1.7,4-4.3,4.3c-1.4,0.1-2.9,0-4.3,0.1
			c-0.8,0-1.1-0.3-1.1-1.1c-0.1-1.8,0-2.1,1.6-2.7c0.7-0.3,1.1-0.7,1.1-1.4c0.1-0.8,0.2-1.6,0.2-2.4c0-5.7,0-11.3,0-17
			c0-2,0-2.1,1.9-2c1.6,0,3.7-0.7,4.8,0.4c1,1,0.3,3.1,0.3,4.7C276.2,588.2,276.1,590.3,276.1,592.5z"/>
		<path class="st9" d="M130,570.3c3.4,0,3.4,0,3.4,3.4c0,2.8,0.3,2.6-2.5,2.6c-0.2,0-0.5,0-0.7,0c-1.2-0.1-3,0.6-3.6-0.4
			c-0.8-1.4-0.3-3.2-0.2-4.9c0-0.6,0.6-0.7,1.1-0.7C128.2,570.3,129.1,570.3,130,570.3z"/>
		<path class="st9" d="M258.9,570.3c3.6,0,3.6,0,3.6,3.7c0,0.4,0,0.8,0,1.2c0,0.7-0.2,1.1-1,1.1c-1.8,0-3.5,0-5.2,0
			c-0.7,0-1-0.4-1-1.1c0-1.2,0.1-2.4,0-3.6c-0.1-1.1,0.5-1.4,1.4-1.3C257.4,570.4,258.2,570.3,258.9,570.3z"/>
		<path class="st9" d="M235.2,576.3c-3.5,0-3.5,0-3.5-3.6c0-0.5,0-1,0-1.4c0-0.7,0.4-1,1.1-1c1.7,0,3.4,0,5,0c0.8,0,1.1,0.4,1.1,1.2
			c0,0.3,0,0.6,0,1C238.9,576.3,238.9,576.3,235.2,576.3z"/>
		<path class="st10" d="M445,576.3c-4.1-0.1-3.5,0.6-3.5-3.5c0-0.3,0-0.6,0-1c-0.1-1.1,0.2-1.6,1.5-1.6c1.4,0.1,2.9,0,4.3,0
			c1,0,1.5,0.3,1.4,1.3c0,0.3,0,0.6,0,1C448.6,576.3,448.6,576.3,445,576.3z"/>
		<path class="st11" d="M153.6,570.3c3.4,0,3.4,0,3.4,3.4c0,2.8,0.2,2.6-2.5,2.6c-0.3,0-0.6,0-0.9,0c-1.1-0.2-2.8,0.6-3.4-0.4
			c-0.8-1.4-0.3-3.2-0.2-4.9c0-0.6,0.6-0.7,1.1-0.7C151.9,570.3,152.8,570.3,153.6,570.3z"/>
		<path class="st12" d="M375.4,570.3c4,0.1,3.5-0.6,3.5,3.5c0,0.4,0,0.8,0,1.2c0,0.9-0.4,1.3-1.3,1.3c-1.6,0-3.2,0-4.8,0
			c-0.8,0-1.1-0.4-1.1-1.2c0-0.4,0-0.8,0-1.2C371.8,570.3,371.8,570.3,375.4,570.3z"/>
		<path class="st10" d="M139.3,570.3c4.2,0.1,3.5-0.7,3.6,3.7c0,0.4,0,0.8,0,1.2c0,0.7-0.2,1.1-0.9,1.1c-1.8,0-3.5,0-5.2,0
			c-0.7,0-0.9-0.4-0.9-1.1c0-1.2,0-2.4,0-3.6c-0.1-1,0.4-1.4,1.4-1.3C137.8,570.4,138.5,570.3,139.3,570.3z"/>
		<path class="st13" d="M351.9,570.3c3.8,0.1,3.4-0.7,3.4,3.4c0,0.2,0,0.5,0,0.7c0,1.8,0,1.8-1.9,1.8c-1.3,0-2.6,0-3.8,0
			c-1.1,0-1.5-0.4-1.4-1.4c0-0.3,0-0.6,0-1C348.2,570.3,348.2,570.3,351.9,570.3z"/>
		<path class="st13" d="M244.6,576.3c-4-0.1-3.5,0.7-3.5-3.6c0-0.4,0-0.8,0-1.2c-0.1-0.9,0.4-1.3,1.3-1.2c1.5,0,3,0,4.6,0
			c0.9,0,1.3,0.4,1.2,1.3c0,1.1-0.1,2.2,0,3.4c0.1,1.1-0.4,1.4-1.4,1.4C246.1,576.3,245.4,576.3,244.6,576.3z"/>
		<path class="st6" d="M425,604.3c0.2,0.9,0.2,1.9,0,2.8c-0.8,0.5-1.7,0.2-2.6,0.3c-1.4,0.2-2-0.2-2-1.8c0-1.6,0.8-1.7,2-1.6
			C423.3,604.2,424.2,603.8,425,604.3z"/>
		<path class="st6" d="M328.1,604.3c0.2,0.9,0.1,1.9,0,2.8c-0.8,0.5-1.7,0.2-2.5,0.3c-1.4,0.2-2-0.2-2-1.8c0-1.6,0.8-1.7,2-1.6
			C326.4,604.2,327.3,603.8,328.1,604.3z"/>
		<path class="st6" d="M418.3,604.4c0.2,0.9,0.1,1.9,0,2.8c-0.8,0.5-1.7,0.2-2.5,0.3c-1.4,0.2-2-0.2-2-1.8c0-1.6,0.8-1.7,2-1.6
			C416.6,604.2,417.5,603.8,418.3,604.4z"/>
		<path class="st14" d="M319.2,607.7c-0.2,0-0.3,0-0.5,0c-0.7-0.1-1.6,0.3-1.9-0.6c-0.3-0.9-0.2-1.9,0-2.8c0.1-0.3,0.4-0.5,0.7-0.5
			c0.6,0,1.3,0,1.9,0c2.1,0,2.1,0,2.1,2.1C321.5,607.7,321.5,607.7,319.2,607.7z"/>
		<path class="st15" d="M328.1,604.3c-1,0-2.1,0-3.1,0c-1,0-1.1,0.7-1.1,1.4c0,0.8,0.1,1.4,1.1,1.4c1,0,2.1,0,3.1,0
			c-1.3,1.1-2.8,0.4-4.2,0.4c-0.4,0-0.5-0.5-0.5-0.9c-0.3-2.6-0.1-2.8,2.6-2.8C326.7,603.9,327.6,603.4,328.1,604.3z"/>
		<path class="st16" d="M425,604.3c-1,0-2.1,0-3.1,0c-1,0-1.1,0.7-1.1,1.4s0.1,1.4,1.1,1.4c1,0,2.1,0,3.1,0
			c-1.3,1.1-2.8,0.4-4.2,0.4c-0.4,0-0.5-0.5-0.5-0.9c-0.3-2.6-0.1-2.8,2.6-2.8C423.6,603.9,424.5,603.4,425,604.3z"/>
		<path class="st17" d="M418.3,604.4c-1,0-1.9,0-2.9,0c-1.1-0.1-1.3,0.5-1.3,1.5c0,1,0.3,1.5,1.4,1.5c1,0,1.9,0,2.8-0.1
			c-1.3,1.1-2.8,0.4-4.2,0.4c-0.1,0-0.4-0.3-0.4-0.5c-0.8-2,0.1-3.3,2.2-3.2C416.7,603.9,417.7,603.3,418.3,604.4z"/>
		<path class="st18" d="M334.4,281.2c0-0.1,0-0.3,0-0.5c0.3-0.4,0.6-0.5,1-0.3c0.1,0,0.1,0.1,0.1,0.2
			C335.4,281.2,334.9,281.3,334.4,281.2z"/>
		<path class="st1" d="M468,598.5c-1.9,0-3.8,0-5.7,0c-0.9,0-1.2-0.3-1.3-1.2c-0.3-3.5,0.4-6.5,3.4-8.6c1.1-0.8,2.1-1.7,3-2.7
			c1.8-1.8,4-1.7,6.2-1.5c1,0.1,1.4,0.7,1.4,1.6c0,3.8,0,7.5,0,11.2c0,1-0.5,1.2-1.4,1.1C471.9,598.5,470,598.5,468,598.5z"/>
		<path class="st19" d="M201.6,591c0,1.7,0,3.3,0,5c0,0.6,0,1.3-0.4,1.8c-0.8,1.1-2.3,1-2.9-0.2c-0.2-0.3-0.2-0.8-0.2-1.2
			c0-2.9,0-5.9,0-8.8c0-1.4,0.7-2.4,2.1-2.9c1-0.3,1.4-0.1,1.5,1C201.6,587.5,201.6,589.3,201.6,591z"/>
		<path class="st6" d="M319,607.2c-1.7,0-1.9-0.2-1.9-1.6c0-0.9,0.4-1.3,1.3-1.3c0.3,0,0.6,0,0.9,0c1-0.1,1.7,0.2,1.7,1.4
			c0,1.1-0.5,1.6-1.5,1.5C319.4,607.2,319.2,607.2,319,607.2z"/>
	</g>
</g>
<path class="st1" d="M131.3,610.4h334.3c11.1,0,20.1-9,20.1-20.1v-31.9h-379v27.4C106.7,599.4,117.7,610.4,131.3,610.4z"/>
<g>
	<rect x="154.4" y="545.2" class="st20" width="271.2" height="76.6"/>
	<path class="st6" d="M211.4,588.6c0,0.8-0.1,2.2-0.3,4.2c-0.3,3.2-1.7,5.8-4.2,7.9c-2.4,2-5.3,3-8.6,3h-8c-3.9,0-7.1-1.3-9.4-4
		c-2.3-2.6-3.4-5.8-3.4-9.8v-10.5h5V590c0,2.4,0.8,4.5,2.3,6.2c1.5,1.7,3.5,2.5,5.9,2.5h7.3c2.5,0,4.5-0.9,6.1-2.7
		c1.5-1.7,2.2-3.8,2.3-6.4c-5,0-8.1-0.2-9.4-0.6c-2.9-1-4.3-3.4-4.3-7.2c0-2.5,0.9-4.5,2.6-6c1.6-1.4,3.8-2.1,6.3-2.1
		c3,0,5.4,1,7.1,3c1.8,1.9,2.6,4.4,2.6,7.3V588.6z M199.6,567.9c0,0.9-0.3,1.7-1,2.2s-1.4,0.8-2.4,0.8c-2.5,0-3.7-1-3.7-3.1
		c0-2,1.1-2.9,3.4-2.9C198.3,565,199.6,566,199.6,567.9z M206.3,584.8c0-1.6-0.4-3-1.4-4.2c-1-1.2-2.2-1.8-3.9-1.8
		c-2.5,0-3.7,1-3.7,3c0,2.1,1.6,3.2,4.9,3.2C204.1,585,205.4,584.9,206.3,584.8z M209.7,567.9c0,0.9-0.3,1.7-1,2.2
		c-0.6,0.6-1.4,0.8-2.3,0.8c-2.5,0-3.8-1-3.8-3.1c0-2,1.1-2.9,3.4-2.9C208.5,565,209.7,566,209.7,567.9z"/>
	<path class="st6" d="M236.2,588.7c0,3.9-1.2,7.2-3.6,9.9c-2.5,2.9-5.7,4.3-9.6,4.3h-7l-0.9-5.4h5.9c2.5,0,4.7-0.6,6.6-1.8
		c2.1-1.4,3.1-3.3,3.1-5.8v-16.9h5.4L236.2,588.7L236.2,588.7z M236,558.8c0,1-0.4,1.9-1.1,2.6s-1.6,1.1-2.6,1.1c-2.7,0-4-1.2-4-3.7
		c0-2.1,1.3-3.2,3.9-3.2C234.7,555.6,236,556.6,236,558.8z"/>
	<path class="st6" d="M250.4,589.6h-5.1v-33.8h5.1V589.6z"/>
	<path class="st6" d="M278.6,588.7c0,3.9-1.2,7.2-3.6,10c-2.5,2.8-5.7,4.3-9.5,4.3h-7l-0.9-5.4h5.9c2.5,0,4.7-0.6,6.5-1.8
		c2.1-1.4,3.2-3.3,3.2-5.8v-16.9h5.4L278.6,588.7L278.6,588.7z"/>
	<path class="st6" d="M318.4,590.3c0,3.5-1.3,6.5-4,9s-5.7,3.7-9.3,3.7h-6.8l-0.7-5.3h6.6c2.5,0,4.6-0.7,6.2-2.2s2.5-3.4,2.6-5.9
		c-4.4,0-7.6-0.6-9.6-1.8c-2.7-1.6-4-4.4-4-8.4c0-4.4,1-7.5,3.1-9.3c1.3-1.1,3.4-1.6,6.5-1.6c4,0,6.7,1.7,8,5
		c0.8,2.1,1.2,5.5,1.2,10.1L318.4,590.3L318.4,590.3z M313.1,584.4V579c0-3.4-1.4-5.2-4.1-5.2c-1.7,0-2.8,0.6-3.4,1.7
		c-0.4,0.8-0.6,2.2-0.6,4.1c0,2.2,0.9,3.7,2.7,4.3C308.6,584.2,310.4,584.4,313.1,584.4z"/>
	<path class="st6" d="M372.1,588.6c0,0.8-0.1,2.2-0.3,4.2c-0.3,3.2-1.7,5.8-4.2,7.9c-2.4,2-5.3,3-8.6,3h-8c-3.9,0-7-1.3-9.4-4
		c-2.3-2.6-3.4-5.8-3.4-9.8v-10.5h5V590c0,2.4,0.8,4.5,2.3,6.2c1.5,1.7,3.5,2.5,5.9,2.5h7.3c2.5,0,4.5-0.9,6.1-2.7
		c1.5-1.7,2.2-3.8,2.3-6.4c-5,0-8.1-0.2-9.4-0.6c-2.9-1-4.3-3.4-4.3-7.2c0-2.5,0.9-4.5,2.6-6c1.6-1.4,3.8-2.1,6.3-2.1
		c3,0,5.4,1,7.1,3c1.8,1.9,2.6,4.4,2.6,7.3V588.6z M360.3,567.9c0,0.9-0.3,1.7-1,2.2c-0.7,0.6-1.4,0.8-2.4,0.8c-2.5,0-3.7-1-3.7-3.1
		c0-2,1.1-2.9,3.4-2.9C359,565,360.3,566,360.3,567.9z M367,584.8c0-1.6-0.5-3-1.4-4.2c-1-1.2-2.2-1.8-3.9-1.8c-2.5,0-3.7,1-3.7,3
		c0,2.1,1.6,3.2,5,3.2C364.8,585,366.1,584.9,367,584.8z M370.4,567.9c0,0.9-0.3,1.7-1,2.2c-0.6,0.6-1.4,0.8-2.3,0.8
		c-2.5,0-3.8-1-3.8-3.1c0-2,1.1-2.9,3.4-2.9C369.2,565,370.4,566,370.4,567.9z"/>
	<path class="st6" d="M396.9,588.7c0,3.9-1.2,7.2-3.6,9.9c-2.5,2.9-5.7,4.3-9.5,4.3h-7l-0.9-5.4h5.9c2.5,0,4.7-0.6,6.6-1.8
		c2.1-1.4,3.1-3.3,3.1-5.8v-16.9h5.4L396.9,588.7L396.9,588.7z M396.7,558.8c0,1-0.4,1.9-1,2.6c-0.7,0.7-1.6,1.1-2.6,1.1
		c-2.7,0-4-1.2-4-3.7c0-2.1,1.3-3.2,3.9-3.2C395.4,555.6,396.7,556.6,396.7,558.8z"/>
	<path class="st6" d="M422.5,588.7c0,3.9-1.2,7.2-3.6,10c-2.5,2.8-5.7,4.3-9.5,4.3h-7l-0.9-5.4h6c2.5,0,4.7-0.6,6.5-1.8
		c2.1-1.4,3.2-3.3,3.2-5.8v-16.9h5.4L422.5,588.7L422.5,588.7z"/>
</g>
</svg>
